<?xml version="1.0" encoding="utf-8"?>
<!-- Generator: Adobe Illustrator 16.0.5, SVG Export Plug-In . SVG Version: 6.00 Build 0)  -->
<!DOCTYPE svg PUBLIC "-//W3C//DTD SVG 1.1//EN" "http://www.w3.org/Graphics/SVG/1.1/DTD/svg11.dtd">
<svg version="1.1" id="Layer_1" xmlns="http://www.w3.org/2000/svg" xmlns:xlink="http://www.w3.org/1999/xlink" x="0px" y="0px"
	 width="250px" height="250px" viewBox="0 0 250 250" enable-background="new 0 0 250 250" xml:space="preserve">
<line fill="#FFFFFF" stroke="#000000" stroke-miterlimit="10" x1="0" y1="250" x2="250" y2="0"/>
<line fill="#FFFFFF" stroke="#000000" stroke-miterlimit="10" x1="100" y1="250" x2="250" y2="100"/>
<line fill="#FFFFFF" stroke="#000000" stroke-miterlimit="10" x1="200" y1="250" x2="250" y2="200"/>
<line fill="#FFFFFF" stroke="#000000" stroke-miterlimit="10" x1="0" y1="150" x2="150" y2="0"/>
<line fill="#FFFFFF" stroke="#000000" stroke-miterlimit="10" x1="0" y1="50" x2="50" y2="0"/>
<line fill="#FFFFFF" stroke="#000000" stroke-miterlimit="10" x1="0" y1="200" x2="200" y2="0"/>
<line fill="#FFFFFF" stroke="#000000" stroke-miterlimit="10" x1="250" y1="50" x2="50" y2="250"/>
<line fill="#FFFFFF" stroke="#000000" stroke-miterlimit="10" x1="150" y1="250" x2="250" y2="150"/>
<line fill="#FFFFFF" stroke="#000000" stroke-miterlimit="10" x1="0" y1="100" x2="100" y2="0"/>
<line fill="#FFFFFF" stroke="#000000" stroke-miterlimit="10" x1="0" y1="75" x2="75" y2="0"/>
<line fill="#FFFFFF" stroke="#000000" stroke-miterlimit="10" x1="0" y1="25" x2="25" y2="0"/>
<line fill="#FFFFFF" stroke="#000000" stroke-miterlimit="10" x1="125" y1="0" x2="0" y2="125"/>
<line fill="#FFFFFF" stroke="#000000" stroke-miterlimit="10" x1="175" y1="0" x2="0" y2="175"/>
<line fill="#FFFFFF" stroke="#000000" stroke-miterlimit="10" x1="225" y1="0" x2="0" y2="225"/>
<line fill="#FFFFFF" stroke="#000000" stroke-miterlimit="10" x1="250" y1="25" x2="25" y2="250"/>
<line fill="#FFFFFF" stroke="#000000" stroke-miterlimit="10" x1="250" y1="75" x2="75" y2="250"/>
<line fill="#FFFFFF" stroke="#000000" stroke-miterlimit="10" x1="250" y1="125" x2="125" y2="250"/>
<line fill="#FFFFFF" stroke="#000000" stroke-miterlimit="10" x1="250" y1="175" x2="175" y2="250"/>
<line fill="#FFFFFF" stroke="#000000" stroke-miterlimit="10" x1="250" y1="225" x2="225" y2="250"/>
</svg>
