<?xml version="1.0" encoding="utf-8"?>
<!-- Generator: Adobe Illustrator 16.0.5, SVG Export Plug-In . SVG Version: 6.00 Build 0)  -->
<!DOCTYPE svg PUBLIC "-//W3C//DTD SVG 1.1//EN" "http://www.w3.org/Graphics/SVG/1.1/DTD/svg11.dtd">
<svg version="1.1" id="Layer_1" xmlns="http://www.w3.org/2000/svg" xmlns:xlink="http://www.w3.org/1999/xlink" x="0px" y="0px"
	 width="500px" height="500px" viewBox="0 0 500 500" enable-background="new 0 0 500 500" xml:space="preserve">
<g>
	<path fill="#FFFFFF" stroke="#000000" stroke-linecap="round" stroke-linejoin="round" stroke-miterlimit="10" d="M250,312
		c0,0,12.5-87.5,87.5-125C337.5,187,325,262,250,312z"/>
	<path fill="#FFFFFF" stroke="#000000" stroke-linecap="round" stroke-linejoin="round" stroke-miterlimit="10" d="M250,312
		c0,0-12.5-87.5-87.5-125C162.5,187,175,262,250,312z"/>
	<path fill="#FFFFFF" stroke="#000000" stroke-linecap="round" stroke-linejoin="round" stroke-miterlimit="10" d="M250,312
		c0,0-25-112.5,37.5-187.5C287.5,124.5,300,224.5,250,312z"/>
	<path fill="#FFFFFF" stroke="#000000" stroke-linecap="round" stroke-linejoin="round" stroke-miterlimit="10" d="M250,312
		c0,0,25-125-37.5-187.5C212.5,124.5,187.5,212,250,312z"/>
	<path fill="#FFFFFF" stroke="#000000" stroke-linecap="round" stroke-linejoin="round" stroke-miterlimit="10" d="M250,87
		c0,0-50,125,0,225C250,312,300,237,250,87z"/>
	<path fill="#FFFFFF" stroke="#000000" stroke-linecap="round" stroke-linejoin="round" stroke-miterlimit="10" d="M250,312
		c0,0,0-125,75-175C325,137,325,237,250,312z"/>
	<path fill="#FFFFFF" stroke="#000000" stroke-linecap="round" stroke-linejoin="round" stroke-miterlimit="10" d="M250,312
		c0,0,0-125-75-175C175,137,175,237,250,312z"/>
	<path fill="#FFFFFF" stroke="#000000" stroke-linecap="round" stroke-linejoin="round" stroke-miterlimit="10" d="M250,312
		c0,0,25-75,100-100C350,212,325,287,250,312z"/>
	<path fill="#FFFFFF" stroke="#000000" stroke-linecap="round" stroke-linejoin="round" stroke-miterlimit="10" d="M250,312
		c0,0-25-75-100-100C150,212,175,287,250,312z"/>
	<path fill="#FFFFFF" stroke="#000000" stroke-linecap="round" stroke-linejoin="round" stroke-miterlimit="10" d="M250,312
		c0,0,25-25,75-25C325,287,300,312,250,312z"/>
	<path fill="#FFFFFF" stroke="#000000" stroke-linecap="round" stroke-linejoin="round" stroke-miterlimit="10" d="M250,312
		c0,0-25-25-75-25C175,287,200,312,250,312z"/>
</g>
<g>
	<polygon fill="#FFFFFF" stroke="#000000" stroke-linecap="round" stroke-linejoin="round" stroke-miterlimit="10" points="300,312 
		294.92,337.5 205,337.5 200,312.5 	"/>
	<polygon fill="#FFFFFF" stroke="#000000" stroke-linecap="round" stroke-linejoin="round" stroke-miterlimit="10" points="
		294.92,337.5 292.53,349.5 275,437.5 225,437.5 207.4,349.5 205,337.5 	"/>
	
		<line fill="none" stroke="#000000" stroke-linecap="round" stroke-linejoin="round" stroke-miterlimit="10" x1="295" y1="337.5" x2="295" y2="337.5"/>
	
		<line fill="none" stroke="#000000" stroke-linecap="round" stroke-linejoin="round" stroke-miterlimit="10" x1="290" y1="361.5" x2="210" y2="361.5"/>
	<path fill="none" stroke="#000000" stroke-linecap="round" stroke-linejoin="round" stroke-miterlimit="10" d="M292.53,351.5
		c-2.026,0-2.026-4-4.053-4s-2.026,4-4.052,4s-2.025-4-4.052-4s-2.026,4-4.053,4s-2.026-4-4.053-4s-2.026,4-4.052,4
		c-2.027,0-2.027-4-4.054-4c-2.024,0-2.024,4-4.048,4c-2.025,0-2.025-4-4.052-4c-2.025,0-2.025,4-4.051,4c-2.027,0-2.027-4-4.054-4
		c-2.025,0-2.025,4-4.051,4c-2.027,0-2.027-4-4.053-4c-2.027,0-2.027,4-4.055,4s-2.028-4-4.055-4c-2.028,0-2.028,4-4.056,4
		c-2.027,0-2.027-4-4.054-4c-2.027,0-2.027,4-4.055,4c-2.028,0-2.028-4-4.056-4c-2.031,0-2.031,4-4.062,4s-2.031-4-4.062-4"/>
</g>
</svg>
